<?xml version="1.0" encoding="UTF-8" standalone="no"?>
<!DOCTYPE svg PUBLIC "-//W3C//DTD SVG 1.1//EN"
 "http://www.w3.org/Graphics/SVG/1.1/DTD/svg11.dtd">
<!-- Generated by graphviz version 15.1.0 (20260618.0150)
 -->
<!-- Title: G Pages: 1 -->
<svg width="1061pt" height="666pt"
 viewBox="0.00 0.00 1061.00 666.00" xmlns="http://www.w3.org/2000/svg" xmlns:xlink="http://www.w3.org/1999/xlink">
<g id="graph0" class="graph" transform="scale(1 1) rotate(0) translate(4 662.38)">
<title>G</title>
<polygon fill="white" stroke="none" points="-4,4 -4,-662.38 1057,-662.38 1057,4 -4,4"/>
<g id="clust1" class="cluster">
<title>cluster_G</title>
<path fill="#808080" fill-opacity="0.094118" stroke="black" d="M20,-8C20,-8 1033,-8 1033,-8 1039,-8 1045,-14 1045,-20 1045,-20 1045,-638.38 1045,-638.38 1045,-644.38 1039,-650.38 1033,-650.38 1033,-650.38 20,-650.38 20,-650.38 14,-650.38 8,-644.38 8,-638.38 8,-638.38 8,-20 8,-20 8,-14 14,-8 20,-8"/>
</g>
<g id="clust2" class="cluster">
<title>cluster_instances</title>
<path fill="#808080" fill-opacity="0.094118" stroke="black" d="M376,-289.95C376,-289.95 993,-289.95 993,-289.95 999,-289.95 1005,-295.95 1005,-301.95 1005,-301.95 1005,-564.4 1005,-564.4 1005,-570.4 999,-576.4 993,-576.4 993,-576.4 376,-576.4 376,-576.4 370,-576.4 364,-570.4 364,-564.4 364,-564.4 364,-301.95 364,-301.95 364,-295.95 370,-289.95 376,-289.95"/>
<text xml:space="preserve" text-anchor="middle" x="684.5" y="-559.1" font-family="Times New Roman,serif" font-size="14.00">instances</text>
</g>
<!-- action -->
<g id="node1" class="node">
<title>action</title>
<g id="a_node1"><a xlink:title="action&#10;action.py">
<ellipse fill="#ffffff" fill-opacity="0.698039" stroke="black" cx="303" cy="-326.94" rx="53.21" ry="28.99"/>
<text xml:space="preserve" text-anchor="middle" x="303" y="-330.14" font-family="Times New Roman,serif" font-size="14.00" fill="#000000">action</text>
<text xml:space="preserve" text-anchor="middle" x="303" y="-313.64" font-family="Times New Roman,serif" font-size="14.00" fill="#000000">(action.py)</text>
</a>
</g>
</g>
<!-- base -->
<g id="node2" class="node">
<title>base</title>
<g id="a_node2"><a xlink:title="base&#10;base.py">
<ellipse fill="#ffffff" fill-opacity="0.698039" stroke="black" cx="539" cy="-44.99" rx="46.85" ry="28.99"/>
<text xml:space="preserve" text-anchor="middle" x="539" y="-48.19" font-family="Times New Roman,serif" font-size="14.00" fill="#000000">base</text>
<text xml:space="preserve" text-anchor="middle" x="539" y="-31.69" font-family="Times New Roman,serif" font-size="14.00" fill="#000000">(base.py)</text>
</a>
</g>
</g>
<!-- action&#45;&gt;base -->
<g id="edge1" class="edge">
<title>action&#45;&gt;base</title>
<path fill="none" stroke="#000000" d="M327.35,-300.78C338.42,-289.14 351.57,-275.02 363,-261.95 417.73,-199.36 478.31,-123.46 512.21,-80.34"/>
<polygon fill="#000000" stroke="#000000" points="514.87,-82.62 518.29,-72.59 509.37,-78.3 514.87,-82.62"/>
</g>
<!-- entity -->
<g id="node4" class="node">
<title>entity</title>
<g id="a_node4"><a xlink:title="entity&#10;entity.py">
<ellipse fill="#ffffff" fill-opacity="0.698039" stroke="black" cx="303" cy="-232.96" rx="51.09" ry="28.99"/>
<text xml:space="preserve" text-anchor="middle" x="303" y="-236.16" font-family="Times New Roman,serif" font-size="14.00" fill="#000000">entity</text>
<text xml:space="preserve" text-anchor="middle" x="303" y="-219.66" font-family="Times New Roman,serif" font-size="14.00" fill="#000000">(entity.py)</text>
</a>
</g>
</g>
<!-- action&#45;&gt;entity -->
<g id="edge2" class="edge">
<title>action&#45;&gt;entity</title>
<path fill="none" stroke="#000000" d="M296.73,-297.84C296.3,-290.16 296.16,-281.68 296.31,-273.49"/>
<polygon fill="#000000" stroke="#000000" points="299.8,-273.83 296.66,-263.71 292.8,-273.58 299.8,-273.83"/>
</g>
<!-- encounter_manager -->
<g id="node3" class="node">
<title>encounter_manager</title>
<g id="a_node3"><a xlink:title="encounter_manager&#10;encounter_manager.py">
<ellipse fill="#ffffff" fill-opacity="0.698039" stroke="black" cx="233" cy="-138.97" rx="105.18" ry="28.99"/>
<text xml:space="preserve" text-anchor="middle" x="233" y="-142.17" font-family="Times New Roman,serif" font-size="14.00" fill="#000000">encounter_manager</text>
<text xml:space="preserve" text-anchor="middle" x="233" y="-125.67" font-family="Times New Roman,serif" font-size="14.00" fill="#000000">(encounter_manager.py)</text>
</a>
</g>
</g>
<!-- encounter_manager&#45;&gt;action -->
<g id="edge3" class="edge">
<title>encounter_manager&#45;&gt;action</title>
<path fill="none" stroke="#000000" d="M230.18,-168.39C228.81,-193.97 229.73,-232.04 243,-261.95 248.3,-273.9 256.8,-285.03 265.74,-294.55"/>
<polygon fill="#000000" stroke="#000000" points="263.05,-296.8 272.59,-301.41 268,-291.86 263.05,-296.8"/>
</g>
<!-- encounter_manager&#45;&gt;base -->
<g id="edge4" class="edge">
<title>encounter_manager&#45;&gt;base</title>
<path fill="none" stroke="#000000" d="M302.82,-116.99C358.69,-100.19 435.83,-77 486.54,-61.76"/>
<polygon fill="#000000" stroke="#000000" points="487.23,-65.21 495.8,-58.98 485.22,-58.5 487.23,-65.21"/>
</g>
<!-- encounter_manager&#45;&gt;entity -->
<g id="edge5" class="edge">
<title>encounter_manager&#45;&gt;entity</title>
<path fill="none" stroke="#000000" d="M259.94,-167.2C267.25,-176.11 275.03,-186.16 281.97,-195.64"/>
<polygon fill="#000000" stroke="#000000" points="279.04,-197.54 287.71,-203.63 284.72,-193.46 279.04,-197.54"/>
</g>
<!-- instances__entities -->
<g id="node8" class="node">
<title>instances__entities</title>
<g id="a_node8"><a xlink:title="instances.entities&#10;module in instances">
<ellipse fill="#ffffff" fill-opacity="0.698039" stroke="black" cx="581" cy="-514.91" rx="94.58" ry="28.99"/>
<text xml:space="preserve" text-anchor="middle" x="581" y="-518.11" font-family="Times New Roman,serif" font-size="14.00" fill="#000000">entities</text>
<text xml:space="preserve" text-anchor="middle" x="581" y="-501.61" font-family="Times New Roman,serif" font-size="14.00" fill="#000000">(module in instances)</text>
</a>
</g>
</g>
<!-- encounter_manager&#45;&gt;instances__entities -->
<g id="edge6" class="edge">
<title>encounter_manager&#45;&gt;instances__entities</title>
<path fill="none" stroke="#000000" d="M218.38,-167.86C213.41,-178.81 208.49,-191.67 206,-203.97 192.61,-270.16 178.88,-294.07 206,-355.93 207.55,-359.46 304.57,-448.15 308,-449.91 378.25,-485.98 405.29,-467.16 482,-485.91 488.72,-487.56 495.67,-489.34 502.63,-491.19"/>
<polygon fill="#000000" stroke="#000000" points="501.51,-494.51 512.08,-493.74 503.33,-487.76 501.51,-494.51"/>
</g>
<!-- entity&#45;&gt;action -->
<g id="edge7" class="edge">
<title>entity&#45;&gt;action</title>
<path fill="none" stroke="#000000" d="M309.28,-262.2C309.71,-269.89 309.84,-278.37 309.69,-286.56"/>
<polygon fill="#000000" stroke="#000000" points="306.2,-286.21 309.33,-296.33 313.19,-286.46 306.2,-286.21"/>
</g>
<!-- entity&#45;&gt;base -->
<g id="edge8" class="edge">
<title>entity&#45;&gt;base</title>
<path fill="none" stroke="#000000" d="M332.41,-208.78C375.27,-175.01 454.88,-112.28 501.77,-75.33"/>
<polygon fill="#000000" stroke="#000000" points="503.82,-78.17 509.5,-69.23 499.48,-72.67 503.82,-78.17"/>
</g>
<!-- entity&#45;&gt;encounter_manager -->
<g id="edge9" class="edge">
<title>entity&#45;&gt;encounter_manager</title>
<path fill="none" stroke="#000000" d="M278.18,-207.31C270.47,-198.02 262.07,-187.24 254.59,-177.06"/>
<polygon fill="#000000" stroke="#000000" points="257.59,-175.24 248.9,-169.17 251.91,-179.33 257.59,-175.24"/>
</g>
<!-- game_manager -->
<g id="node5" class="node">
<title>game_manager</title>
<g id="a_node5"><a xlink:title="game_manager&#10;game_manager.py">
<ellipse fill="#ffffff" fill-opacity="0.698039" stroke="black" cx="145" cy="-420.92" rx="88.74" ry="28.99"/>
<text xml:space="preserve" text-anchor="middle" x="145" y="-424.12" font-family="Times New Roman,serif" font-size="14.00" fill="#000000">game_manager</text>
<text xml:space="preserve" text-anchor="middle" x="145" y="-407.62" font-family="Times New Roman,serif" font-size="14.00" fill="#000000">(game_manager.py)</text>
</a>
</g>
</g>
<!-- game_manager&#45;&gt;action -->
<g id="edge10" class="edge">
<title>game_manager&#45;&gt;action</title>
<path fill="none" stroke="#000000" d="M187.34,-395.27C208.98,-382.67 235.34,-367.33 257.42,-354.47"/>
<polygon fill="#000000" stroke="#000000" points="259.05,-357.58 265.93,-349.52 255.52,-351.53 259.05,-357.58"/>
</g>
<!-- game_manager&#45;&gt;base -->
<g id="edge11" class="edge">
<title>game_manager&#45;&gt;base</title>
<path fill="none" stroke="#000000" d="M130.87,-391.89C102.98,-332.14 49.32,-191.08 119,-109.98 164.92,-56.53 376.3,-47.22 480.54,-45.94"/>
<polygon fill="#000000" stroke="#000000" points="480.32,-49.44 490.28,-45.84 480.25,-42.44 480.32,-49.44"/>
</g>
<!-- game_manager&#45;&gt;encounter_manager -->
<g id="edge12" class="edge">
<title>game_manager&#45;&gt;encounter_manager</title>
<path fill="none" stroke="#000000" d="M138.98,-391.55C134.41,-364.89 130.28,-324.09 139,-289.95 149.95,-247.1 178.3,-205.03 201.02,-176.4"/>
<polygon fill="#000000" stroke="#000000" points="203.63,-178.74 207.22,-168.77 198.2,-174.33 203.63,-178.74"/>
</g>
<!-- game_manager&#45;&gt;entity -->
<g id="edge13" class="edge">
<title>game_manager&#45;&gt;entity</title>
<path fill="none" stroke="#000000" d="M142.08,-391.68C140.69,-363.01 143.03,-318.85 166,-289.95 184.91,-266.15 215.6,-252.39 243.14,-244.47"/>
<polygon fill="#000000" stroke="#000000" points="243.68,-247.95 252.45,-242.01 241.88,-241.19 243.68,-247.95"/>
</g>
<!-- test -->
<g id="node6" class="node">
<title>test</title>
<g id="a_node6"><a xlink:title="test&#10;test.py">
<ellipse fill="#ffffff" fill-opacity="0.698039" stroke="black" cx="437" cy="-613.39" rx="43.13" ry="28.99"/>
<text xml:space="preserve" text-anchor="middle" x="437" y="-616.59" font-family="Times New Roman,serif" font-size="14.00" fill="#000000">test</text>
<text xml:space="preserve" text-anchor="middle" x="437" y="-600.09" font-family="Times New Roman,serif" font-size="14.00" fill="#000000">(test.py)</text>
</a>
</g>
</g>
<!-- test&#45;&gt;action -->
<g id="edge38" class="edge">
<title>test&#45;&gt;action</title>
<path fill="none" stroke="#000000" d="M397.2,-601.7C383.6,-596.2 369.46,-588.1 360,-576.4 311,-515.75 302.45,-420.91 301.88,-367.66"/>
<polygon fill="#000000" stroke="#000000" points="305.38,-367.83 301.87,-357.83 298.38,-367.84 305.38,-367.83"/>
</g>
<!-- test&#45;&gt;base -->
<g id="edge39" class="edge">
<title>test&#45;&gt;base</title>
<path fill="none" stroke="#000000" d="M393.56,-611C299.66,-607.61 84.14,-597.58 59,-576.4 4.59,-530.56 17,-493.07 17,-421.92 17,-421.92 17,-421.92 17,-231.96 17,-169.45 35.25,-145.03 87,-109.98 150.08,-67.27 373.32,-52.62 480.6,-47.97"/>
<polygon fill="#000000" stroke="#000000" points="480.49,-51.48 490.34,-47.57 480.2,-44.49 480.49,-51.48"/>
</g>
<!-- test&#45;&gt;encounter_manager -->
<g id="edge40" class="edge">
<title>test&#45;&gt;encounter_manager</title>
<path fill="none" stroke="#000000" d="M393.67,-610.03C328.14,-605.88 207.38,-595.82 169,-576.4 99.31,-541.13 76.24,-522.34 47,-449.91 7.97,-353.23 144.89,-204.09 145,-203.97 155.12,-192.22 167.8,-181.43 180.35,-172.19"/>
<polygon fill="#000000" stroke="#000000" points="182.07,-175.26 188.2,-166.62 178.02,-169.55 182.07,-175.26"/>
</g>
<!-- test&#45;&gt;entity -->
<g id="edge41" class="edge">
<title>test&#45;&gt;entity</title>
<path fill="none" stroke="#000000" d="M393.89,-609.28C367.88,-605.3 335.69,-596.36 314,-576.4 249.37,-516.9 276.63,-473.09 243,-391.93 236.3,-375.76 230.63,-373.06 227,-355.93 220.91,-327.24 213.77,-316.12 227,-289.95 233.36,-277.37 244.02,-266.92 255.38,-258.59"/>
<polygon fill="#000000" stroke="#000000" points="257,-261.72 263.32,-253.22 253.08,-255.93 257,-261.72"/>
</g>
<!-- test&#45;&gt;game_manager -->
<g id="edge42" class="edge">
<title>test&#45;&gt;game_manager</title>
<path fill="none" stroke="#000000" d="M394.07,-608.1C345.91,-602.62 271.45,-591.95 248,-576.4 205.58,-548.27 176.3,-496.07 160.09,-460.19"/>
<polygon fill="#000000" stroke="#000000" points="163.49,-459.23 156.28,-451.47 157.08,-462.03 163.49,-459.23"/>
</g>
<!-- instances__effects -->
<g id="node7" class="node">
<title>instances__effects</title>
<g id="a_node7"><a xlink:title="instances.effects&#10;module in instances">
<ellipse fill="#ffffff" fill-opacity="0.698039" stroke="black" cx="581" cy="-326.94" rx="94.58" ry="28.99"/>
<text xml:space="preserve" text-anchor="middle" x="581" y="-330.14" font-family="Times New Roman,serif" font-size="14.00" fill="#000000">effects</text>
<text xml:space="preserve" text-anchor="middle" x="581" y="-313.64" font-family="Times New Roman,serif" font-size="14.00" fill="#000000">(module in instances)</text>
</a>
</g>
</g>
<!-- test&#45;&gt;instances__effects -->
<g id="edge43" class="edge">
<title>test&#45;&gt;instances__effects</title>
<path fill="none" stroke="#000000" d="M480.09,-610.11C559.9,-605.54 727.64,-594.12 783,-576.4 891.52,-541.66 948.65,-548.37 1006,-449.91 1018.97,-427.65 1022.81,-411.46 1006,-391.93 965.65,-345.05 799.28,-332.05 687.07,-328.71"/>
<polygon fill="#000000" stroke="#000000" points="687.31,-325.22 677.22,-328.44 687.12,-332.22 687.31,-325.22"/>
</g>
<!-- test&#45;&gt;instances__entities -->
<g id="edge44" class="edge">
<title>test&#45;&gt;instances__entities</title>
<path fill="none" stroke="#000000" d="M467.19,-592.16C486.22,-579.41 511.23,-562.65 532.95,-548.1"/>
<polygon fill="#000000" stroke="#000000" points="534.74,-551.12 541.09,-542.64 530.84,-545.3 534.74,-551.12"/>
</g>
<!-- instances__others -->
<g id="node9" class="node">
<title>instances__others</title>
<g id="a_node9"><a xlink:title="instances.others&#10;module in instances">
<ellipse fill="#ffffff" fill-opacity="0.698039" stroke="black" cx="902" cy="-420.92" rx="94.58" ry="28.99"/>
<text xml:space="preserve" text-anchor="middle" x="902" y="-424.12" font-family="Times New Roman,serif" font-size="14.00" fill="#000000">others</text>
<text xml:space="preserve" text-anchor="middle" x="902" y="-407.62" font-family="Times New Roman,serif" font-size="14.00" fill="#000000">(module in instances)</text>
</a>
</g>
</g>
<!-- test&#45;&gt;instances__others -->
<g id="edge45" class="edge">
<title>test&#45;&gt;instances__others</title>
<path fill="none" stroke="#000000" d="M480.15,-609.69C547.19,-605.02 672.95,-594.17 714,-576.4 776.99,-549.13 835.75,-494.25 870.28,-457.79"/>
<polygon fill="#000000" stroke="#000000" points="872.81,-460.21 877.07,-450.51 867.69,-455.43 872.81,-460.21"/>
</g>
<!-- instances__spells -->
<g id="node10" class="node">
<title>instances__spells</title>
<g id="a_node10"><a xlink:title="instances.spells&#10;module in instances">
<ellipse fill="#ffffff" fill-opacity="0.698039" stroke="black" cx="467" cy="-420.92" rx="94.58" ry="28.99"/>
<text xml:space="preserve" text-anchor="middle" x="467" y="-424.12" font-family="Times New Roman,serif" font-size="14.00" fill="#000000">spells</text>
<text xml:space="preserve" text-anchor="middle" x="467" y="-407.62" font-family="Times New Roman,serif" font-size="14.00" fill="#000000">(module in instances)</text>
</a>
</g>
</g>
<!-- test&#45;&gt;instances__spells -->
<g id="edge46" class="edge">
<title>test&#45;&gt;instances__spells</title>
<path fill="none" stroke="#000000" d="M480.43,-612.61C544.36,-611.91 659.06,-606.38 685,-576.4 711.31,-545.99 709.1,-518.11 685,-485.91 676.57,-474.66 609.93,-456.1 552.52,-441.85"/>
<polygon fill="#000000" stroke="#000000" points="553.57,-438.51 543.02,-439.52 551.89,-445.3 553.57,-438.51"/>
</g>
<!-- instances__weapons -->
<g id="node11" class="node">
<title>instances__weapons</title>
<g id="a_node11"><a xlink:title="instances.weapons&#10;module in instances">
<ellipse fill="#ffffff" fill-opacity="0.698039" stroke="black" cx="695" cy="-420.92" rx="94.58" ry="28.99"/>
<text xml:space="preserve" text-anchor="middle" x="695" y="-424.12" font-family="Times New Roman,serif" font-size="14.00" fill="#000000">weapons</text>
<text xml:space="preserve" text-anchor="middle" x="695" y="-407.62" font-family="Times New Roman,serif" font-size="14.00" fill="#000000">(module in instances)</text>
</a>
</g>
</g>
<!-- test&#45;&gt;instances__weapons -->
<g id="edge47" class="edge">
<title>test&#45;&gt;instances__weapons</title>
<path fill="none" stroke="#000000" d="M480.38,-613C547.36,-612.92 671.16,-608.32 699,-576.4 726.29,-545.11 719.12,-495.2 709.19,-460.62"/>
<polygon fill="#000000" stroke="#000000" points="712.64,-459.94 706.35,-451.41 705.95,-462 712.64,-459.94"/>
</g>
<!-- instances__effects&#45;&gt;action -->
<g id="edge14" class="edge">
<title>instances__effects&#45;&gt;action</title>
<path fill="none" stroke="#000000" d="M486.28,-326.94C446.82,-326.94 407.35,-326.94 367.89,-326.94"/>
<polygon fill="#000000" stroke="#000000" points="368,-323.44 358,-326.94 368,-330.44 368,-323.44"/>
</g>
<!-- instances__effects&#45;&gt;base -->
<g id="edge15" class="edge">
<title>instances__effects&#45;&gt;base</title>
<path fill="none" stroke="#000000" d="M576.74,-297.56C569.19,-247.23 553.45,-142.28 544.87,-85.13"/>
<polygon fill="#000000" stroke="#000000" points="548.38,-84.9 543.43,-75.53 541.45,-85.94 548.38,-84.9"/>
</g>
<!-- instances__effects&#45;&gt;encounter_manager -->
<g id="edge16" class="edge">
<title>instances__effects&#45;&gt;encounter_manager</title>
<path fill="none" stroke="#000000" d="M537.53,-300.73C493.79,-275.57 424.24,-236.14 363,-203.97 340.89,-192.35 316.38,-180.12 294.65,-169.5"/>
<polygon fill="#000000" stroke="#000000" points="296.45,-166.48 285.92,-165.24 293.38,-172.77 296.45,-166.48"/>
</g>
<!-- instances__effects&#45;&gt;entity -->
<g id="edge17" class="edge">
<title>instances__effects&#45;&gt;entity</title>
<path fill="none" stroke="#000000" d="M521.74,-303.9C508.69,-299.18 494.91,-294.31 482,-289.95 440.77,-276.01 393.79,-261.36 358.31,-250.55"/>
<polygon fill="#000000" stroke="#000000" points="359.72,-247.32 349.13,-247.76 357.68,-254.01 359.72,-247.32"/>
</g>
<!-- instances__entities&#45;&gt;action -->
<g id="edge18" class="edge">
<title>instances__entities&#45;&gt;action</title>
<path fill="none" stroke="#000000" d="M512.38,-494.51C449.58,-476.64 365.94,-452.52 363,-449.91 341.99,-431.31 350.3,-417.15 338,-391.93 333.69,-383.1 328.78,-373.74 324.02,-364.98"/>
<polygon fill="#000000" stroke="#000000" points="327.17,-363.45 319.29,-356.37 321.04,-366.82 327.17,-363.45"/>
</g>
<!-- instances__entities&#45;&gt;base -->
<g id="edge19" class="edge">
<title>instances__entities&#45;&gt;base</title>
<path fill="none" stroke="#000000" d="M675.34,-511.63C785.58,-506.98 958.94,-492.85 1006,-449.91 1047.24,-412.29 1036,-383.77 1036,-327.94 1036,-327.94 1036,-327.94 1036,-231.96 1036,-138.84 726.1,-76.82 595.72,-54.85"/>
<polygon fill="#000000" stroke="#000000" points="596.35,-51.41 585.92,-53.22 595.21,-58.32 596.35,-51.41"/>
</g>
<!-- instances__entities&#45;&gt;encounter_manager -->
<g id="edge20" class="edge">
<title>instances__entities&#45;&gt;encounter_manager</title>
<path fill="none" stroke="#000000" d="M513.51,-494.24C502.99,-491.35 492.22,-488.48 482,-485.91 409.62,-467.75 379.19,-492.63 318,-449.91 292.93,-432.42 302.4,-413.76 281,-391.93 260.81,-371.33 240.61,-381.36 227,-355.93 197.22,-300.3 209.18,-224.51 220.87,-179.09"/>
<polygon fill="#000000" stroke="#000000" points="224.18,-180.26 223.42,-169.69 217.42,-178.43 224.18,-180.26"/>
</g>
<!-- instances__entities&#45;&gt;entity -->
<g id="edge21" class="edge">
<title>instances__entities&#45;&gt;entity</title>
<path fill="none" stroke="#000000" d="M512.91,-494.36C502.57,-491.47 492.01,-488.58 482,-485.91 418.25,-468.94 386.64,-494.48 338,-449.91 317.9,-431.5 336.24,-412.19 318,-391.93 292.73,-363.85 261.28,-387.8 241,-355.93 225.26,-331.19 229.09,-316.75 241,-289.95 245.59,-279.61 253.14,-270.37 261.42,-262.53"/>
<polygon fill="#000000" stroke="#000000" points="263.49,-265.37 268.72,-256.15 258.89,-260.09 263.49,-265.37"/>
</g>
<!-- instances__entities&#45;&gt;instances__effects -->
<g id="edge22" class="edge">
<title>instances__entities&#45;&gt;instances__effects</title>
<path fill="none" stroke="#000000" d="M581,-485.66C581,-454.17 581,-403 581,-367.52"/>
<polygon fill="#000000" stroke="#000000" points="584.5,-367.66 581,-357.66 577.5,-367.66 584.5,-367.66"/>
</g>
<!-- instances__entities&#45;&gt;instances__others -->
<g id="edge23" class="edge">
<title>instances__entities&#45;&gt;instances__others</title>
<path fill="none" stroke="#000000" d="M649.08,-494.4C700.04,-479.79 769.86,-459.79 823.24,-444.49"/>
<polygon fill="#000000" stroke="#000000" points="823.92,-447.94 832.57,-441.82 821.99,-441.21 823.92,-447.94"/>
</g>
<!-- instances__entities&#45;&gt;instances__spells -->
<g id="edge24" class="edge">
<title>instances__entities&#45;&gt;instances__spells</title>
<path fill="none" stroke="#000000" d="M548.03,-487.3C535.74,-477.38 521.63,-466 508.66,-455.53"/>
<polygon fill="#000000" stroke="#000000" points="511.06,-452.97 501.08,-449.42 506.66,-458.42 511.06,-452.97"/>
</g>
<!-- instances__entities&#45;&gt;instances__weapons -->
<g id="edge25" class="edge">
<title>instances__entities&#45;&gt;instances__weapons</title>
<path fill="none" stroke="#000000" d="M613.97,-487.3C626.26,-477.38 640.37,-466 653.34,-455.53"/>
<polygon fill="#000000" stroke="#000000" points="655.34,-458.42 660.92,-449.42 650.94,-452.97 655.34,-458.42"/>
</g>
<!-- instances__others&#45;&gt;action -->
<g id="edge26" class="edge">
<title>instances__others&#45;&gt;action</title>
<path fill="none" stroke="#000000" d="M835.36,-399.9C823.34,-396.84 810.86,-394.01 799,-391.93 606.18,-358.12 548.72,-407.99 360,-355.93 356.71,-355.02 353.37,-353.92 350.06,-352.69"/>
<polygon fill="#000000" stroke="#000000" points="351.59,-349.54 341.02,-348.97 348.93,-356.01 351.59,-349.54"/>
</g>
<!-- instances__others&#45;&gt;base -->
<g id="edge27" class="edge">
<title>instances__others&#45;&gt;base</title>
<path fill="none" stroke="#000000" d="M886.64,-392.17C853.06,-333.56 767.84,-195.55 665,-109.98 642.57,-91.32 613.8,-76.19 589.41,-65.34"/>
<polygon fill="#000000" stroke="#000000" points="590.86,-62.15 580.29,-61.4 588.09,-68.58 590.86,-62.15"/>
</g>
<!-- instances__others&#45;&gt;entity -->
<g id="edge28" class="edge">
<title>instances__others&#45;&gt;entity</title>
<path fill="none" stroke="#000000" d="M835.03,-400.12C823.1,-397.06 810.74,-394.17 799,-391.93 728.27,-378.45 538.69,-393.06 477,-355.93 446.59,-337.63 459.84,-311.97 432,-289.95 404.75,-268.39 390.8,-275.96 359,-261.95 356.21,-260.72 353.35,-259.42 350.48,-258.08"/>
<polygon fill="#000000" stroke="#000000" points="352.01,-254.94 341.48,-253.79 349,-261.25 352.01,-254.94"/>
</g>
<!-- instances__others&#45;&gt;instances__effects -->
<g id="edge29" class="edge">
<title>instances__others&#45;&gt;instances__effects</title>
<path fill="none" stroke="#000000" d="M833.92,-400.42C782.96,-385.81 713.14,-365.8 659.76,-350.51"/>
<polygon fill="#000000" stroke="#000000" points="661.01,-347.23 650.43,-347.84 659.08,-353.95 661.01,-347.23"/>
</g>
<!-- instances__spells&#45;&gt;action -->
<g id="edge30" class="edge">
<title>instances__spells&#45;&gt;action</title>
<path fill="none" stroke="#000000" d="M422.62,-395.03C399.89,-382.29 372.25,-366.78 349.26,-353.89"/>
<polygon fill="#000000" stroke="#000000" points="351.15,-350.93 340.71,-349.09 347.72,-357.04 351.15,-350.93"/>
</g>
<!-- instances__spells&#45;&gt;base -->
<g id="edge31" class="edge">
<title>instances__spells&#45;&gt;base</title>
<path fill="none" stroke="#000000" d="M541.55,-402.69C601.09,-388.17 676.03,-367.91 685,-355.93 753.6,-264.3 636.55,-135.28 574.21,-76.87"/>
<polygon fill="#000000" stroke="#000000" points="576.63,-74.34 566.91,-70.13 571.89,-79.49 576.63,-74.34"/>
</g>
<!-- instances__spells&#45;&gt;entity -->
<g id="edge32" class="edge">
<title>instances__spells&#45;&gt;entity</title>
<path fill="none" stroke="#000000" d="M447.38,-392.19C427.73,-365.09 396.02,-323.19 365,-289.95 357.13,-281.52 348.17,-272.92 339.56,-265.08"/>
<polygon fill="#000000" stroke="#000000" points="342.02,-262.59 332.24,-258.53 337.36,-267.81 342.02,-262.59"/>
</g>
<!-- instances__spells&#45;&gt;instances__effects -->
<g id="edge33" class="edge">
<title>instances__spells&#45;&gt;instances__effects</title>
<path fill="none" stroke="#000000" d="M499.97,-393.32C512.26,-383.4 526.37,-372.02 539.34,-361.55"/>
<polygon fill="#000000" stroke="#000000" points="541.34,-364.44 546.92,-355.44 536.94,-358.99 541.34,-364.44"/>
</g>
<!-- instances__weapons&#45;&gt;action -->
<g id="edge34" class="edge">
<title>instances__weapons&#45;&gt;action</title>
<path fill="none" stroke="#000000" d="M621.04,-402.55C604.6,-398.88 587.24,-395.15 571,-391.93 477.68,-373.45 450.52,-385.2 360,-355.93 356.9,-354.93 353.76,-353.79 350.63,-352.55"/>
<polygon fill="#000000" stroke="#000000" points="352.04,-349.34 341.47,-348.63 349.28,-355.78 352.04,-349.34"/>
</g>
<!-- instances__weapons&#45;&gt;base -->
<g id="edge35" class="edge">
<title>instances__weapons&#45;&gt;base</title>
<path fill="none" stroke="#000000" d="M700.42,-391.52C707.29,-349.46 715.98,-268.62 696,-203.97 681.51,-157.07 672.34,-145.05 638,-109.98 622.54,-94.19 602.5,-80.33 584.5,-69.59"/>
<polygon fill="#000000" stroke="#000000" points="586.47,-66.69 576.06,-64.71 582.97,-72.75 586.47,-66.69"/>
</g>
<!-- instances__weapons&#45;&gt;entity -->
<g id="edge36" class="edge">
<title>instances__weapons&#45;&gt;entity</title>
<path fill="none" stroke="#000000" d="M621.24,-402.43C556.45,-386.69 470.32,-364.74 456,-355.93 422.49,-335.32 427.36,-314.97 397,-289.95 382.81,-278.26 365.91,-267.4 350.38,-258.42"/>
<polygon fill="#000000" stroke="#000000" points="352.16,-255.41 341.74,-253.54 348.73,-261.5 352.16,-255.41"/>
</g>
<!-- instances__weapons&#45;&gt;instances__effects -->
<g id="edge37" class="edge">
<title>instances__weapons&#45;&gt;instances__effects</title>
<path fill="none" stroke="#000000" d="M662.03,-393.32C649.74,-383.4 635.63,-372.02 622.66,-361.55"/>
<polygon fill="#000000" stroke="#000000" points="625.06,-358.99 615.08,-355.44 620.66,-364.44 625.06,-358.99"/>
</g>
</g>
</svg>
