<?xml version="1.0" encoding="UTF-8" standalone="no"?>
<!DOCTYPE svg PUBLIC "-//W3C//DTD SVG 1.1//EN"
 "http://www.w3.org/Graphics/SVG/1.1/DTD/svg11.dtd">
<!-- Generated by graphviz version 15.1.0 (20260618.0150)
 -->
<!-- Title: G Pages: 1 -->
<svg width="545pt" height="585pt"
 viewBox="0.00 0.00 545.00 585.00" xmlns="http://www.w3.org/2000/svg" xmlns:xlink="http://www.w3.org/1999/xlink">
<g id="graph0" class="graph" transform="scale(1 1) rotate(0) translate(4 580.5)">
<title>G</title>
<polygon fill="white" stroke="none" points="-4,4 -4,-580.5 541,-580.5 541,4 -4,4"/>
<g id="clust1" class="cluster">
<title>cluster_G</title>
<path fill="#808080" fill-opacity="0.094118" stroke="black" d="M20,-8C20,-8 517,-8 517,-8 523,-8 529,-14 529,-20 529,-20 529,-556.5 529,-556.5 529,-562.5 523,-568.5 517,-568.5 517,-568.5 20,-568.5 20,-568.5 14,-568.5 8,-562.5 8,-556.5 8,-556.5 8,-20 8,-20 8,-14 14,-8 20,-8"/>
</g>
<g id="clust2" class="cluster">
<title>cluster_instances</title>
<path fill="#808080" fill-opacity="0.094118" stroke="black" d="M252,-296C252,-296 497,-296 497,-296 503,-296 509,-302 509,-308 509,-308 509,-504.5 509,-504.5 509,-510.5 503,-516.5 497,-516.5 497,-516.5 252,-516.5 252,-516.5 246,-516.5 240,-510.5 240,-504.5 240,-504.5 240,-308 240,-308 240,-302 246,-296 252,-296"/>
<text xml:space="preserve" text-anchor="middle" x="374.5" y="-499.2" font-family="Times New Roman,serif" font-size="14.00">instances</text>
</g>
<!-- action -->
<g id="node1" class="node">
<title>action</title>
<g id="a_node1"><a xlink:title="action&#10;action.py">
<ellipse fill="#ffffff" fill-opacity="0.698039" stroke="black" cx="199" cy="-322" rx="33.44" ry="18"/>
<text xml:space="preserve" text-anchor="middle" x="199" y="-316.95" font-family="Times New Roman,serif" font-size="14.00" fill="#000000">action</text>
</a>
</g>
</g>
<!-- base -->
<g id="node2" class="node">
<title>base</title>
<g id="a_node2"><a xlink:title="base&#10;base.py">
<ellipse fill="#ffffff" fill-opacity="0.698039" stroke="black" cx="420" cy="-34" rx="27.3" ry="18"/>
<text xml:space="preserve" text-anchor="middle" x="420" y="-28.95" font-family="Times New Roman,serif" font-size="14.00" fill="#000000">base</text>
</a>
</g>
</g>
<!-- action&#45;&gt;base -->
<g id="edge1" class="edge">
<title>action&#45;&gt;base</title>
<path fill="none" stroke="#000000" d="M203.98,-303.8C218.92,-252.68 263.24,-104.22 279,-88 306.51,-59.69 350.61,-46.33 382.16,-40.15"/>
<polygon fill="#000000" stroke="#000000" points="382.45,-43.65 391.67,-38.44 381.21,-36.76 382.45,-43.65"/>
</g>
<!-- context -->
<g id="node3" class="node">
<title>context</title>
<g id="a_node3"><a xlink:title="context&#10;context.py">
<ellipse fill="#ffffff" fill-opacity="0.698039" stroke="black" cx="320" cy="-250" rx="38.04" ry="18"/>
<text xml:space="preserve" text-anchor="middle" x="320" y="-244.95" font-family="Times New Roman,serif" font-size="14.00" fill="#000000">context</text>
</a>
</g>
</g>
<!-- action&#45;&gt;context -->
<g id="edge2" class="edge">
<title>action&#45;&gt;context</title>
<path fill="none" stroke="#000000" d="M218.73,-307.13C224.24,-303.4 230.29,-299.45 236,-296 251.65,-286.55 269.44,-276.88 284.61,-268.93"/>
<polygon fill="#000000" stroke="#000000" points="286.02,-272.14 293.29,-264.43 282.8,-265.93 286.02,-272.14"/>
</g>
<!-- entity -->
<g id="node5" class="node">
<title>entity</title>
<g id="a_node5"><a xlink:title="entity&#10;entity.py">
<ellipse fill="#ffffff" fill-opacity="0.698039" stroke="black" cx="320" cy="-106" rx="31.9" ry="18"/>
<text xml:space="preserve" text-anchor="middle" x="320" y="-100.95" font-family="Times New Roman,serif" font-size="14.00" fill="#000000">entity</text>
</a>
</g>
</g>
<!-- action&#45;&gt;entity -->
<g id="edge3" class="edge">
<title>action&#45;&gt;entity</title>
<path fill="none" stroke="#000000" d="M209,-304.54C217.91,-294.64 230.16,-281.39 239,-268 267.94,-224.15 290.44,-166.74 304.83,-133.66"/>
<polygon fill="#000000" stroke="#000000" points="307.9,-135.37 308.78,-124.81 301.51,-132.51 307.9,-135.37"/>
</g>
<!-- encounter_manager -->
<g id="node4" class="node">
<title>encounter_manager</title>
<g id="a_node4"><a xlink:title="encounter_manager&#10;encounter_manager.py">
<ellipse fill="#ffffff" fill-opacity="0.698039" stroke="black" cx="140" cy="-178" rx="84.11" ry="18"/>
<text xml:space="preserve" text-anchor="middle" x="140" y="-172.95" font-family="Times New Roman,serif" font-size="14.00" fill="#000000">encounter_manager</text>
</a>
</g>
</g>
<!-- context&#45;&gt;encounter_manager -->
<g id="edge4" class="edge">
<title>context&#45;&gt;encounter_manager</title>
<path fill="none" stroke="#000000" d="M289.31,-238.97C260.75,-228.61 218.03,-212.16 185.54,-199.11"/>
<polygon fill="#000000" stroke="#000000" points="186.93,-195.9 176.35,-195.39 184.31,-202.39 186.93,-195.9"/>
</g>
<!-- context&#45;&gt;entity -->
<g id="edge5" class="edge">
<title>context&#45;&gt;entity</title>
<path fill="none" stroke="#000000" d="M315.42,-231.87C312.89,-207.99 312.57,-164.38 314.46,-135.54"/>
<polygon fill="#000000" stroke="#000000" points="317.94,-135.95 315.28,-125.7 310.97,-135.37 317.94,-135.95"/>
</g>
<!-- encounter_manager&#45;&gt;context -->
<g id="edge6" class="edge">
<title>encounter_manager&#45;&gt;context</title>
<path fill="none" stroke="#000000" d="M183.63,-193.78C214.08,-205.07 254.17,-220.63 283.05,-232.36"/>
<polygon fill="#000000" stroke="#000000" points="281.54,-235.52 292.12,-236.07 284.2,-229.04 281.54,-235.52"/>
</g>
<!-- encounter_manager&#45;&gt;entity -->
<g id="edge7" class="edge">
<title>encounter_manager&#45;&gt;entity</title>
<path fill="none" stroke="#000000" d="M179.06,-161.81C210.09,-149.74 253.17,-132.99 283.52,-121.19"/>
<polygon fill="#000000" stroke="#000000" points="284.61,-124.52 292.66,-117.63 282.07,-117.99 284.61,-124.52"/>
</g>
<!-- instances__entities -->
<g id="node9" class="node">
<title>instances__entities</title>
<g id="a_node9"><a xlink:title="instances.entities&#10;module in instances">
<ellipse fill="#eeccfe" fill-opacity="0.698039" stroke="black" cx="373" cy="-466" rx="37.53" ry="18"/>
<text xml:space="preserve" text-anchor="middle" x="373" y="-460.95" font-family="Times New Roman,serif" font-size="14.00" fill="#000000">entities</text>
</a>
</g>
</g>
<!-- encounter_manager&#45;&gt;instances__entities -->
<g id="edge8" class="edge">
<title>encounter_manager&#45;&gt;instances__entities</title>
<path fill="none" stroke="#000000" d="M136.5,-196.16C131.12,-226.38 123.31,-290.59 142,-340 156.94,-379.5 168.4,-389.28 204,-412 253.45,-443.56 275.51,-428.97 331,-448 332.34,-448.46 333.7,-448.94 335.07,-449.43"/>
<polygon fill="#000000" stroke="#000000" points="333.59,-452.62 344.18,-452.88 336.07,-446.07 333.59,-452.62"/>
</g>
<!-- entity&#45;&gt;action -->
<g id="edge9" class="edge">
<title>entity&#45;&gt;action</title>
<path fill="none" stroke="#000000" d="M319.71,-124.39C312.93,-154.96 288.88,-219.7 257,-268 249.37,-279.57 239.18,-291.03 229.35,-300.32"/>
<polygon fill="#000000" stroke="#000000" points="227.14,-297.61 222,-306.87 231.8,-302.83 227.14,-297.61"/>
</g>
<!-- entity&#45;&gt;base -->
<g id="edge10" class="edge">
<title>entity&#45;&gt;base</title>
<path fill="none" stroke="#000000" d="M339.28,-91.5C354.37,-80.94 375.55,-66.12 392.43,-54.3"/>
<polygon fill="#000000" stroke="#000000" points="394.36,-57.22 400.55,-48.62 390.35,-51.48 394.36,-57.22"/>
</g>
<!-- entity&#45;&gt;context -->
<g id="edge11" class="edge">
<title>entity&#45;&gt;context</title>
<path fill="none" stroke="#000000" d="M324.59,-124.19C327.11,-148.1 327.43,-191.72 325.53,-220.53"/>
<polygon fill="#000000" stroke="#000000" points="322.05,-220.11 324.71,-230.36 329.03,-220.69 322.05,-220.11"/>
</g>
<!-- game_manager -->
<g id="node6" class="node">
<title>game_manager</title>
<g id="a_node6"><a xlink:title="game_manager&#10;game_manager.py">
<ellipse fill="#ffffff" fill-opacity="0.698039" stroke="black" cx="144" cy="-466" rx="68.24" ry="18"/>
<text xml:space="preserve" text-anchor="middle" x="144" y="-460.95" font-family="Times New Roman,serif" font-size="14.00" fill="#000000">game_manager</text>
</a>
</g>
</g>
<!-- game_manager&#45;&gt;encounter_manager -->
<g id="edge12" class="edge">
<title>game_manager&#45;&gt;encounter_manager</title>
<path fill="none" stroke="#000000" d="M125.83,-448.22C116.79,-438.61 106.79,-425.75 102,-412 75.69,-336.45 77.52,-308.16 102,-232 105.09,-222.39 110.63,-213.05 116.55,-204.96"/>
<polygon fill="#000000" stroke="#000000" points="119.16,-207.29 122.6,-197.27 113.66,-202.96 119.16,-207.29"/>
</g>
<!-- test -->
<g id="node7" class="node">
<title>test</title>
<g id="a_node7"><a xlink:title="test&#10;test.py">
<ellipse fill="#ffffff" fill-opacity="0.698039" stroke="black" cx="241" cy="-542.5" rx="27" ry="18"/>
<text xml:space="preserve" text-anchor="middle" x="241" y="-537.45" font-family="Times New Roman,serif" font-size="14.00" fill="#000000">test</text>
</a>
</g>
</g>
<!-- test&#45;&gt;action -->
<g id="edge35" class="edge">
<title>test&#45;&gt;action</title>
<path fill="none" stroke="#000000" d="M237.45,-524.3C231.96,-497.76 221.93,-449.68 221,-448 209.9,-427.92 192.93,-433.14 184,-412 175.71,-392.37 180.46,-368.48 186.74,-350.39"/>
<polygon fill="#000000" stroke="#000000" points="189.98,-351.72 190.31,-341.13 183.45,-349.2 189.98,-351.72"/>
</g>
<!-- test&#45;&gt;base -->
<g id="edge36" class="edge">
<title>test&#45;&gt;base</title>
<path fill="none" stroke="#000000" d="M213.93,-540.35C158.23,-537.7 34.87,-530.34 22,-516.5 -14.81,-476.92 17,-449.05 17,-395 17,-395 17,-395 17,-177 17,-100.02 281.85,-54.53 382.13,-40.06"/>
<polygon fill="#000000" stroke="#000000" points="382.34,-43.57 391.75,-38.7 381.36,-36.64 382.34,-43.57"/>
</g>
<!-- test&#45;&gt;encounter_manager -->
<g id="edge37" class="edge">
<title>test&#45;&gt;encounter_manager</title>
<path fill="none" stroke="#000000" d="M213.8,-541.55C169.94,-541.02 86.5,-537.22 67,-516.5 29.87,-477.04 57,-449.18 57,-395 57,-395 57,-395 57,-321 57,-279.11 65.91,-267.59 88,-232 94.32,-221.81 102.91,-212.03 111.29,-203.71"/>
<polygon fill="#000000" stroke="#000000" points="113.57,-206.38 118.41,-196.95 108.75,-201.3 113.57,-206.38"/>
</g>
<!-- test&#45;&gt;entity -->
<g id="edge38" class="edge">
<title>test&#45;&gt;entity</title>
<path fill="none" stroke="#000000" d="M213.54,-542.18C164.64,-542.74 65.49,-540.77 43,-516.5 6.25,-476.84 37,-449.07 37,-395 37,-395 37,-395 37,-249 37,-209.2 20,-189.25 47,-160 77.49,-126.97 208.09,-113.95 277.01,-109.3"/>
<polygon fill="#000000" stroke="#000000" points="277.06,-112.81 286.81,-108.68 276.61,-105.82 277.06,-112.81"/>
</g>
<!-- test&#45;&gt;game_manager -->
<g id="edge39" class="edge">
<title>test&#45;&gt;game_manager</title>
<path fill="none" stroke="#000000" d="M223.66,-528.18C209.99,-517.68 190.6,-502.79 174.38,-490.33"/>
<polygon fill="#000000" stroke="#000000" points="176.52,-487.56 166.45,-484.25 172.25,-493.11 176.52,-487.56"/>
</g>
<!-- instances__effects -->
<g id="node8" class="node">
<title>instances__effects</title>
<g id="a_node8"><a xlink:title="instances.effects&#10;module in instances">
<ellipse fill="#eeccfe" fill-opacity="0.698039" stroke="black" cx="346" cy="-322" rx="35.49" ry="18"/>
<text xml:space="preserve" text-anchor="middle" x="346" y="-316.95" font-family="Times New Roman,serif" font-size="14.00" fill="#000000">effects</text>
</a>
</g>
</g>
<!-- test&#45;&gt;instances__effects -->
<g id="edge40" class="edge">
<title>test&#45;&gt;instances__effects</title>
<path fill="none" stroke="#000000" d="M239.75,-524.16C237.02,-484.25 231.35,-388.33 239,-376 241.11,-372.59 279.77,-353.94 310.02,-339.71"/>
<polygon fill="#000000" stroke="#000000" points="311.36,-342.95 318.93,-335.54 308.39,-336.62 311.36,-342.95"/>
</g>
<!-- test&#45;&gt;instances__entities -->
<g id="edge41" class="edge">
<title>test&#45;&gt;instances__entities</title>
<path fill="none" stroke="#000000" d="M267.51,-538.36C286.39,-535.15 311.74,-528.82 331,-516.5 340.62,-510.35 349.21,-501.31 356.07,-492.63"/>
<polygon fill="#000000" stroke="#000000" points="358.78,-494.85 361.91,-484.73 353.15,-490.69 358.78,-494.85"/>
</g>
<!-- instances__others -->
<g id="node10" class="node">
<title>instances__others</title>
<g id="a_node10"><a xlink:title="instances.others&#10;module in instances">
<ellipse fill="#eeccfe" fill-opacity="0.698039" stroke="black" cx="468" cy="-394" rx="33.44" ry="18"/>
<text xml:space="preserve" text-anchor="middle" x="468" y="-388.95" font-family="Times New Roman,serif" font-size="14.00" fill="#000000">others</text>
</a>
</g>
</g>
<!-- test&#45;&gt;instances__others -->
<g id="edge42" class="edge">
<title>test&#45;&gt;instances__others</title>
<path fill="none" stroke="#000000" d="M268.27,-541.91C317.44,-542.05 418.14,-539.45 443,-516.5 468.36,-493.09 471.77,-451.36 470.77,-423.44"/>
<polygon fill="#000000" stroke="#000000" points="474.27,-423.33 470.18,-413.56 467.28,-423.75 474.27,-423.33"/>
</g>
<!-- instances__spells -->
<g id="node11" class="node">
<title>instances__spells</title>
<g id="a_node11"><a xlink:title="instances.spells&#10;module in instances">
<ellipse fill="#eeccfe" fill-opacity="0.698039" stroke="black" cx="280" cy="-394" rx="31.9" ry="18"/>
<text xml:space="preserve" text-anchor="middle" x="280" y="-388.95" font-family="Times New Roman,serif" font-size="14.00" fill="#000000">spells</text>
</a>
</g>
</g>
<!-- test&#45;&gt;instances__spells -->
<g id="edge43" class="edge">
<title>test&#45;&gt;instances__spells</title>
<path fill="none" stroke="#000000" d="M268.44,-541.85C313.64,-541.79 400.69,-538.69 420,-516.5 439.98,-493.53 437.47,-472.94 420,-448 393.14,-409.65 364.63,-428.97 321,-412 319.22,-411.31 317.41,-410.59 315.57,-409.86"/>
<polygon fill="#000000" stroke="#000000" points="317.07,-406.69 306.48,-406.17 314.43,-413.18 317.07,-406.69"/>
</g>
<!-- instances__weapons -->
<g id="node12" class="node">
<title>instances__weapons</title>
<g id="a_node12"><a xlink:title="instances.weapons&#10;module in instances">
<ellipse fill="#eeccfe" fill-opacity="0.698039" stroke="black" cx="373" cy="-394" rx="43.16" ry="18"/>
<text xml:space="preserve" text-anchor="middle" x="373" y="-388.95" font-family="Times New Roman,serif" font-size="14.00" fill="#000000">weapons</text>
</a>
</g>
</g>
<!-- test&#45;&gt;instances__weapons -->
<g id="edge44" class="edge">
<title>test&#45;&gt;instances__weapons</title>
<path fill="none" stroke="#000000" d="M268.36,-542.13C315.98,-542.58 411.04,-540.38 432,-516.5 452.08,-493.62 444.4,-475.81 432,-448 426.41,-435.45 416.21,-424.64 405.85,-416.11"/>
<polygon fill="#000000" stroke="#000000" points="408.09,-413.41 398.02,-410.13 403.84,-418.98 408.09,-413.41"/>
</g>
<!-- instances__effects&#45;&gt;action -->
<g id="edge13" class="edge">
<title>instances__effects&#45;&gt;action</title>
<path fill="none" stroke="#000000" d="M310.21,-322C288.26,-322 266.31,-322 244.36,-322"/>
<polygon fill="#000000" stroke="#000000" points="244.39,-318.5 234.39,-322 244.39,-325.5 244.39,-318.5"/>
</g>
<!-- instances__effects&#45;&gt;context -->
<g id="edge14" class="edge">
<title>instances__effects&#45;&gt;context</title>
<path fill="none" stroke="#000000" d="M339.71,-304.05C336.86,-296.4 333.43,-287.16 330.24,-278.56"/>
<polygon fill="#000000" stroke="#000000" points="333.53,-277.36 326.76,-269.21 326.96,-279.8 333.53,-277.36"/>
</g>
<!-- instances__effects&#45;&gt;entity -->
<g id="edge15" class="edge">
<title>instances__effects&#45;&gt;entity</title>
<path fill="none" stroke="#000000" d="M354.5,-304.31C359.21,-294.11 364.59,-280.64 367,-268 370,-252.28 369.86,-247.74 367,-232 360.61,-196.83 344.87,-158.68 333.36,-133.9"/>
<polygon fill="#000000" stroke="#000000" points="336.67,-132.73 329.22,-125.2 330.35,-135.73 336.67,-132.73"/>
</g>
<!-- instances__entities&#45;&gt;action -->
<g id="edge16" class="edge">
<title>instances__entities&#45;&gt;action</title>
<path fill="none" stroke="#000000" d="M345,-453.62C340.33,-451.73 335.53,-449.8 331,-448 290.2,-431.76 270.8,-442.27 239,-412 221.85,-395.67 211.5,-370.64 205.64,-351.28"/>
<polygon fill="#000000" stroke="#000000" points="209.07,-350.53 203.03,-341.82 202.32,-352.39 209.07,-350.53"/>
</g>
<!-- instances__entities&#45;&gt;base -->
<g id="edge17" class="edge">
<title>instances__entities&#45;&gt;base</title>
<path fill="none" stroke="#000000" d="M409.5,-461.28C441.31,-455.97 486.02,-443.1 510,-412 534.3,-380.48 520,-362.8 520,-323 520,-323 520,-323 520,-177 520,-133.99 507.46,-122.66 482,-88 472.61,-75.21 459.56,-63.47 447.86,-54.3"/>
<polygon fill="#000000" stroke="#000000" points="450.16,-51.65 440.06,-48.44 445.95,-57.25 450.16,-51.65"/>
</g>
<!-- instances__entities&#45;&gt;encounter_manager -->
<g id="edge18" class="edge">
<title>instances__entities&#45;&gt;encounter_manager</title>
<path fill="none" stroke="#000000" d="M346.15,-453.3C341.17,-451.37 335.97,-449.51 331,-448 255.42,-425.09 217.61,-462.63 157,-412 97.78,-362.53 117.19,-257.91 131.07,-207.43"/>
<polygon fill="#000000" stroke="#000000" points="134.43,-208.42 133.84,-197.84 127.7,-206.48 134.43,-208.42"/>
</g>
<!-- instances__entities&#45;&gt;entity -->
<g id="edge19" class="edge">
<title>instances__entities&#45;&gt;entity</title>
<path fill="none" stroke="#000000" d="M345.57,-453.5C340.74,-451.59 335.74,-449.69 331,-448 279.74,-429.78 258.5,-443.3 214,-412 197.64,-400.5 199.41,-391.69 187,-376 174.08,-359.66 164.09,-359.58 157,-340 150.34,-321.61 150.19,-314.33 157,-296 164.36,-276.21 255.02,-176.97 297.86,-130.75"/>
<polygon fill="#000000" stroke="#000000" points="300.24,-133.33 304.48,-123.62 295.11,-128.57 300.24,-133.33"/>
</g>
<!-- instances__entities&#45;&gt;instances__others -->
<g id="edge20" class="edge">
<title>instances__entities&#45;&gt;instances__others</title>
<path fill="none" stroke="#000000" d="M392.68,-450.5C406.37,-440.41 424.8,-426.83 440.01,-415.62"/>
<polygon fill="#000000" stroke="#000000" points="441.8,-418.66 447.77,-409.91 437.64,-413.02 441.8,-418.66"/>
</g>
<!-- instances__entities&#45;&gt;instances__spells -->
<g id="edge21" class="edge">
<title>instances__entities&#45;&gt;instances__spells</title>
<path fill="none" stroke="#000000" d="M353.73,-450.5C340.34,-440.41 322.29,-426.83 307.4,-415.62"/>
<polygon fill="#000000" stroke="#000000" points="309.91,-413.14 299.82,-409.92 305.7,-418.73 309.91,-413.14"/>
</g>
<!-- instances__entities&#45;&gt;instances__weapons -->
<g id="edge22" class="edge">
<title>instances__entities&#45;&gt;instances__weapons</title>
<path fill="none" stroke="#000000" d="M373,-447.7C373,-440.41 373,-431.73 373,-423.54"/>
<polygon fill="#000000" stroke="#000000" points="376.5,-423.62 373,-413.62 369.5,-423.62 376.5,-423.62"/>
</g>
<!-- instances__others&#45;&gt;action -->
<g id="edge23" class="edge">
<title>instances__others&#45;&gt;action</title>
<path fill="none" stroke="#000000" d="M442.35,-381.95C436.7,-379.77 430.71,-377.66 425,-376 342.88,-352.18 317.45,-366.04 236,-340 235.19,-339.74 234.38,-339.47 233.56,-339.19"/>
<polygon fill="#000000" stroke="#000000" points="234.94,-335.97 224.36,-335.57 232.38,-342.49 234.94,-335.97"/>
</g>
<!-- instances__others&#45;&gt;base -->
<g id="edge24" class="edge">
<title>instances__others&#45;&gt;base</title>
<path fill="none" stroke="#000000" d="M474.32,-376.23C483.65,-349.94 500,-297.25 500,-251 500,-251 500,-251 500,-177 500,-129.71 465.91,-83.65 442.24,-57.37"/>
<polygon fill="#000000" stroke="#000000" points="445.08,-55.28 435.7,-50.35 439.95,-60.05 445.08,-55.28"/>
</g>
<!-- instances__others&#45;&gt;entity -->
<g id="edge25" class="edge">
<title>instances__others&#45;&gt;entity</title>
<path fill="none" stroke="#000000" d="M466.35,-375.65C461.62,-334.25 444.8,-228.09 392,-160 381.21,-146.08 365.84,-134.09 352.07,-125.05"/>
<polygon fill="#000000" stroke="#000000" points="354.03,-122.15 343.7,-119.81 350.32,-128.08 354.03,-122.15"/>
</g>
<!-- instances__others&#45;&gt;instances__effects -->
<g id="edge26" class="edge">
<title>instances__others&#45;&gt;instances__effects</title>
<path fill="none" stroke="#000000" d="M445.62,-380.16C426.82,-369.37 399.71,-353.82 378.52,-341.66"/>
<polygon fill="#000000" stroke="#000000" points="380.38,-338.69 369.96,-336.75 376.89,-344.76 380.38,-338.69"/>
</g>
<!-- instances__spells&#45;&gt;action -->
<g id="edge27" class="edge">
<title>instances__spells&#45;&gt;action</title>
<path fill="none" stroke="#000000" d="M263.22,-378.5C252.1,-368.89 237.32,-356.11 224.73,-345.24"/>
<polygon fill="#000000" stroke="#000000" points="227.04,-342.61 217.19,-338.72 222.46,-347.9 227.04,-342.61"/>
</g>
<!-- instances__spells&#45;&gt;base -->
<g id="edge28" class="edge">
<title>instances__spells&#45;&gt;base</title>
<path fill="none" stroke="#000000" d="M305.15,-382.42C340.38,-367.54 400.36,-342.03 402,-340 427.38,-308.63 420,-291.36 420,-251 420,-251 420,-251 420,-177 420,-137.74 420,-92.38 420,-63.69"/>
<polygon fill="#000000" stroke="#000000" points="423.5,-64 420,-54 416.5,-64 423.5,-64"/>
</g>
<!-- instances__spells&#45;&gt;entity -->
<g id="edge29" class="edge">
<title>instances__spells&#45;&gt;entity</title>
<path fill="none" stroke="#000000" d="M305.12,-382.57C336.04,-369.49 385.09,-347.81 390,-340 432.7,-272.03 373.42,-176.56 340.04,-131.89"/>
<polygon fill="#000000" stroke="#000000" points="342.94,-129.92 334.08,-124.11 337.39,-134.17 342.94,-129.92"/>
</g>
<!-- instances__spells&#45;&gt;instances__effects -->
<g id="edge30" class="edge">
<title>instances__spells&#45;&gt;instances__effects</title>
<path fill="none" stroke="#000000" d="M294.32,-377.81C302.85,-368.76 313.86,-357.08 323.53,-346.83"/>
<polygon fill="#000000" stroke="#000000" points="325.9,-349.42 330.21,-339.75 320.8,-344.62 325.9,-349.42"/>
</g>
<!-- instances__weapons&#45;&gt;action -->
<g id="edge31" class="edge">
<title>instances__weapons&#45;&gt;action</title>
<path fill="none" stroke="#000000" d="M341.22,-381.34C313.31,-370.95 271.71,-355.09 236,-340 235.37,-339.73 234.73,-339.46 234.09,-339.19"/>
<polygon fill="#000000" stroke="#000000" points="235.53,-336 224.97,-335.16 232.71,-342.4 235.53,-336"/>
</g>
<!-- instances__weapons&#45;&gt;base -->
<g id="edge32" class="edge">
<title>instances__weapons&#45;&gt;base</title>
<path fill="none" stroke="#000000" d="M396.81,-378.79C409.84,-369.55 424.77,-356.22 432,-340 474.11,-245.56 445.06,-117.9 428.86,-62.52"/>
<polygon fill="#000000" stroke="#000000" points="432.31,-61.84 426.06,-53.29 425.61,-63.87 432.31,-61.84"/>
</g>
<!-- instances__weapons&#45;&gt;entity -->
<g id="edge33" class="edge">
<title>instances__weapons&#45;&gt;entity</title>
<path fill="none" stroke="#000000" d="M394.32,-377.96C405.76,-368.52 418.76,-355.27 425,-340 432.4,-321.9 428.09,-315.31 425,-296 414.86,-232.56 411.85,-213.32 376,-160 368.14,-148.31 357.29,-137.28 347.23,-128.34"/>
<polygon fill="#000000" stroke="#000000" points="349.72,-125.87 339.83,-122.04 345.17,-131.19 349.72,-125.87"/>
</g>
<!-- instances__weapons&#45;&gt;instances__effects -->
<g id="edge34" class="edge">
<title>instances__weapons&#45;&gt;instances__effects</title>
<path fill="none" stroke="#000000" d="M366.46,-376.05C363.48,-368.32 359.87,-358.96 356.52,-350.27"/>
<polygon fill="#000000" stroke="#000000" points="359.88,-349.27 353.02,-341.2 353.35,-351.79 359.88,-349.27"/>
</g>
</g>
</svg>
