<?xml version="1.0" encoding="UTF-8" standalone="no"?>
<!DOCTYPE svg PUBLIC "-//W3C//DTD SVG 1.1//EN"
 "http://www.w3.org/Graphics/SVG/1.1/DTD/svg11.dtd">
<!-- Generated by graphviz version 15.1.0 (20260618.0150)
 -->
<!-- Title: G Pages: 1 -->
<svg width="1074pt" height="679pt"
 viewBox="0.00 0.00 1074.00 679.00" xmlns="http://www.w3.org/2000/svg" xmlns:xlink="http://www.w3.org/1999/xlink">
<g id="graph0" class="graph" transform="scale(1 1) rotate(0) translate(4 674.88)">
<title>G</title>
<polygon fill="white" stroke="none" points="-4,4 -4,-674.88 1070,-674.88 1070,4 -4,4"/>
<g id="clust1" class="cluster">
<title>cluster_G</title>
<path fill="#808080" fill-opacity="0.094118" stroke="black" d="M20,-8C20,-8 1046,-8 1046,-8 1052,-8 1058,-14 1058,-20 1058,-20 1058,-650.88 1058,-650.88 1058,-656.88 1052,-662.88 1046,-662.88 1046,-662.88 20,-662.88 20,-662.88 14,-662.88 8,-656.88 8,-650.88 8,-650.88 8,-20 8,-20 8,-14 14,-8 20,-8"/>
</g>
<g id="clust2" class="cluster">
<title>cluster_engine</title>
<path fill="#808080" fill-opacity="0.094118" stroke="black" d="M80,-16C80,-16 326,-16 326,-16 332,-16 338,-22 338,-28 338,-28 338,-478.41 338,-478.41 338,-484.41 332,-490.41 326,-490.41 326,-490.41 80,-490.41 80,-490.41 74,-490.41 68,-484.41 68,-478.41 68,-478.41 68,-28 68,-28 68,-22 74,-16 80,-16"/>
<text xml:space="preserve" text-anchor="middle" x="203" y="-473.11" font-family="Times New Roman,serif" font-size="14.00">engine</text>
</g>
<g id="clust3" class="cluster">
<title>cluster_instances</title>
<path fill="#808080" fill-opacity="0.094118" stroke="black" d="M410,-297.95C410,-297.95 1026,-297.95 1026,-297.95 1032,-297.95 1038,-303.95 1038,-309.95 1038,-309.95 1038,-576.9 1038,-576.9 1038,-582.9 1032,-588.9 1026,-588.9 1026,-588.9 410,-588.9 410,-588.9 404,-588.9 398,-582.9 398,-576.9 398,-576.9 398,-309.95 398,-309.95 398,-303.95 404,-297.95 410,-297.95"/>
<text xml:space="preserve" text-anchor="middle" x="718" y="-571.6" font-family="Times New Roman,serif" font-size="14.00">instances</text>
</g>
<!-- test -->
<g id="node1" class="node">
<title>test</title>
<g id="a_node1"><a xlink:title="test&#10;test.py">
<ellipse fill="#ffffff" fill-opacity="0.698039" stroke="black" cx="316" cy="-625.89" rx="43.13" ry="28.99"/>
<text xml:space="preserve" text-anchor="middle" x="316" y="-629.09" font-family="Times New Roman,serif" font-size="14.00" fill="#000000">test</text>
<text xml:space="preserve" text-anchor="middle" x="316" y="-612.59" font-family="Times New Roman,serif" font-size="14.00" fill="#000000">(test.py)</text>
</a>
</g>
</g>
<!-- engine__action -->
<g id="node2" class="node">
<title>engine__action</title>
<g id="a_node2"><a xlink:title="engine.action&#10;module in engine">
<ellipse fill="#e5fecc" fill-opacity="0.698039" stroke="black" cx="225" cy="-146.97" rx="85.03" ry="28.99"/>
<text xml:space="preserve" text-anchor="middle" x="225" y="-150.17" font-family="Times New Roman,serif" font-size="14.00" fill="#000000">action</text>
<text xml:space="preserve" text-anchor="middle" x="225" y="-133.67" font-family="Times New Roman,serif" font-size="14.00" fill="#000000">(module in engine)</text>
</a>
</g>
</g>
<!-- test&#45;&gt;engine__action -->
<g id="edge34" class="edge">
<title>test&#45;&gt;engine__action</title>
<path fill="none" stroke="#000000" d="M272.67,-624.39C209.77,-622.73 97.55,-615.94 69,-588.9 16.68,-539.33 37,-501.99 37,-429.92 37,-429.92 37,-429.92 37,-333.94 37,-275.01 48.1,-254.4 89,-211.97 106.12,-194.21 129.14,-180.84 151.37,-171.04"/>
<polygon fill="#000000" stroke="#000000" points="152.58,-174.32 160.45,-167.23 149.87,-167.87 152.58,-174.32"/>
</g>
<!-- engine__base -->
<g id="node3" class="node">
<title>engine__base</title>
<g id="a_node3"><a xlink:title="engine.base&#10;module in engine">
<ellipse fill="#e5fecc" fill-opacity="0.698039" stroke="black" cx="225" cy="-52.99" rx="85.03" ry="28.99"/>
<text xml:space="preserve" text-anchor="middle" x="225" y="-56.19" font-family="Times New Roman,serif" font-size="14.00" fill="#000000">base</text>
<text xml:space="preserve" text-anchor="middle" x="225" y="-39.69" font-family="Times New Roman,serif" font-size="14.00" fill="#000000">(module in engine)</text>
</a>
</g>
</g>
<!-- test&#45;&gt;engine__base -->
<g id="edge35" class="edge">
<title>test&#45;&gt;engine__base</title>
<path fill="none" stroke="#000000" d="M272.79,-622.45C196.76,-617.72 45.51,-606.24 29,-588.9 -19.85,-537.57 17,-500.78 17,-429.92 17,-429.92 17,-429.92 17,-239.96 17,-176.78 43.22,-160.45 90,-117.98 108.4,-101.28 131.94,-88.11 154.2,-78.18"/>
<polygon fill="#000000" stroke="#000000" points="155.44,-81.45 163.26,-74.3 152.69,-75.02 155.44,-81.45"/>
</g>
<!-- engine__encounter_manager -->
<g id="node4" class="node">
<title>engine__encounter_manager</title>
<g id="a_node4"><a xlink:title="engine.encounter_manager&#10;module in engine">
<ellipse fill="#e5fecc" fill-opacity="0.698039" stroke="black" cx="203" cy="-240.96" rx="87.15" ry="28.99"/>
<text xml:space="preserve" text-anchor="middle" x="203" y="-244.16" font-family="Times New Roman,serif" font-size="14.00" fill="#000000">encounter_manager</text>
<text xml:space="preserve" text-anchor="middle" x="203" y="-227.66" font-family="Times New Roman,serif" font-size="14.00" fill="#000000">(module in engine)</text>
</a>
</g>
</g>
<!-- test&#45;&gt;engine__encounter_manager -->
<g id="edge36" class="edge">
<title>test&#45;&gt;engine__encounter_manager</title>
<path fill="none" stroke="#000000" d="M274.46,-617.23C214.89,-603.69 107.86,-569.12 67,-490.41 26.76,-412.9 107.82,-323.35 161.24,-275.77"/>
<polygon fill="#000000" stroke="#000000" points="163.5,-278.44 168.73,-269.22 158.9,-273.17 163.5,-278.44"/>
</g>
<!-- engine__entity -->
<g id="node5" class="node">
<title>engine__entity</title>
<g id="a_node5"><a xlink:title="engine.entity&#10;module in engine">
<ellipse fill="#e5fecc" fill-opacity="0.698039" stroke="black" cx="245" cy="-334.94" rx="85.03" ry="28.99"/>
<text xml:space="preserve" text-anchor="middle" x="245" y="-338.14" font-family="Times New Roman,serif" font-size="14.00" fill="#000000">entity</text>
<text xml:space="preserve" text-anchor="middle" x="245" y="-321.64" font-family="Times New Roman,serif" font-size="14.00" fill="#000000">(module in engine)</text>
</a>
</g>
</g>
<!-- test&#45;&gt;engine__entity -->
<g id="edge37" class="edge">
<title>test&#45;&gt;engine__entity</title>
<path fill="none" stroke="#000000" d="M309.13,-596.92C296.4,-545.14 269.15,-434.22 254.61,-375.04"/>
<polygon fill="#000000" stroke="#000000" points="258.02,-374.27 252.24,-365.39 251.22,-375.94 258.02,-374.27"/>
</g>
<!-- engine__game_manager -->
<g id="node6" class="node">
<title>engine__game_manager</title>
<g id="a_node6"><a xlink:title="engine.game_manager&#10;module in engine">
<ellipse fill="#e5fecc" fill-opacity="0.698039" stroke="black" cx="161" cy="-428.92" rx="85.03" ry="28.99"/>
<text xml:space="preserve" text-anchor="middle" x="161" y="-432.12" font-family="Times New Roman,serif" font-size="14.00" fill="#000000">game_manager</text>
<text xml:space="preserve" text-anchor="middle" x="161" y="-415.62" font-family="Times New Roman,serif" font-size="14.00" fill="#000000">(module in engine)</text>
</a>
</g>
</g>
<!-- test&#45;&gt;engine__game_manager -->
<g id="edge38" class="edge">
<title>test&#45;&gt;engine__game_manager</title>
<path fill="none" stroke="#000000" d="M292.23,-601.27C288.39,-597.22 284.52,-593 281,-588.9 246.47,-548.64 210.25,-499.57 186.75,-466.68"/>
<polygon fill="#000000" stroke="#000000" points="189.7,-464.8 181.06,-458.68 184,-468.85 189.7,-464.8"/>
</g>
<!-- instances__effects -->
<g id="node7" class="node">
<title>instances__effects</title>
<g id="a_node7"><a xlink:title="instances.effects&#10;module in instances">
<ellipse fill="#ccfefe" fill-opacity="0.698039" stroke="black" cx="521" cy="-334.94" rx="94.58" ry="28.99"/>
<text xml:space="preserve" text-anchor="middle" x="521" y="-338.14" font-family="Times New Roman,serif" font-size="14.00" fill="#000000">effects</text>
<text xml:space="preserve" text-anchor="middle" x="521" y="-321.64" font-family="Times New Roman,serif" font-size="14.00" fill="#000000">(module in instances)</text>
</a>
</g>
</g>
<!-- test&#45;&gt;instances__effects -->
<g id="edge39" class="edge">
<title>test&#45;&gt;instances__effects</title>
<path fill="none" stroke="#000000" d="M319.44,-596.65C326.4,-550.43 346.09,-457.98 397,-399.93 410.88,-384.1 429.63,-371.65 448.34,-362.1"/>
<polygon fill="#000000" stroke="#000000" points="449.86,-365.25 457.34,-357.75 446.81,-358.95 449.86,-365.25"/>
</g>
<!-- instances__entities -->
<g id="node8" class="node">
<title>instances__entities</title>
<g id="a_node8"><a xlink:title="instances.entities&#10;module in instances">
<ellipse fill="#ccfefe" fill-opacity="0.698039" stroke="black" cx="521" cy="-527.41" rx="94.58" ry="28.99"/>
<text xml:space="preserve" text-anchor="middle" x="521" y="-530.61" font-family="Times New Roman,serif" font-size="14.00" fill="#000000">entities</text>
<text xml:space="preserve" text-anchor="middle" x="521" y="-514.11" font-family="Times New Roman,serif" font-size="14.00" fill="#000000">(module in instances)</text>
</a>
</g>
</g>
<!-- test&#45;&gt;instances__entities -->
<g id="edge40" class="edge">
<title>test&#45;&gt;instances__entities</title>
<path fill="none" stroke="#000000" d="M355.58,-613.74C375.86,-607.45 400.7,-598.87 422,-588.9 439.37,-580.76 457.52,-570.31 473.46,-560.39"/>
<polygon fill="#000000" stroke="#000000" points="475.22,-563.42 481.8,-555.11 471.48,-557.5 475.22,-563.42"/>
</g>
<!-- instances__others -->
<g id="node9" class="node">
<title>instances__others</title>
<g id="a_node9"><a xlink:title="instances.others&#10;module in instances">
<ellipse fill="#ccfefe" fill-opacity="0.698039" stroke="black" cx="728" cy="-428.92" rx="94.58" ry="28.99"/>
<text xml:space="preserve" text-anchor="middle" x="728" y="-432.12" font-family="Times New Roman,serif" font-size="14.00" fill="#000000">others</text>
<text xml:space="preserve" text-anchor="middle" x="728" y="-415.62" font-family="Times New Roman,serif" font-size="14.00" fill="#000000">(module in instances)</text>
</a>
</g>
</g>
<!-- test&#45;&gt;instances__others -->
<g id="edge41" class="edge">
<title>test&#45;&gt;instances__others</title>
<path fill="none" stroke="#000000" d="M359.51,-624.86C436.81,-624.04 594.16,-618.64 639,-588.9 681.1,-560.97 705.31,-506 717.57,-468.61"/>
<polygon fill="#000000" stroke="#000000" points="720.76,-470.13 720.4,-459.54 714.08,-468.04 720.76,-470.13"/>
</g>
<!-- instances__spells -->
<g id="node10" class="node">
<title>instances__spells</title>
<g id="a_node10"><a xlink:title="instances.spells&#10;module in instances">
<ellipse fill="#ccfefe" fill-opacity="0.698039" stroke="black" cx="935" cy="-428.92" rx="94.58" ry="28.99"/>
<text xml:space="preserve" text-anchor="middle" x="935" y="-432.12" font-family="Times New Roman,serif" font-size="14.00" fill="#000000">spells</text>
<text xml:space="preserve" text-anchor="middle" x="935" y="-415.62" font-family="Times New Roman,serif" font-size="14.00" fill="#000000">(module in instances)</text>
</a>
</g>
</g>
<!-- test&#45;&gt;instances__spells -->
<g id="edge42" class="edge">
<title>test&#45;&gt;instances__spells</title>
<path fill="none" stroke="#000000" d="M359.4,-623C442.11,-619.01 619.19,-608.43 677,-588.9 760.59,-560.66 845.37,-501.2 893.92,-463.54"/>
<polygon fill="#000000" stroke="#000000" points="895.94,-466.4 901.65,-457.48 891.62,-460.89 895.94,-466.4"/>
</g>
<!-- instances__weapons -->
<g id="node11" class="node">
<title>instances__weapons</title>
<g id="a_node11"><a xlink:title="instances.weapons&#10;module in instances">
<ellipse fill="#ccfefe" fill-opacity="0.698039" stroke="black" cx="521" cy="-428.92" rx="94.58" ry="28.99"/>
<text xml:space="preserve" text-anchor="middle" x="521" y="-432.12" font-family="Times New Roman,serif" font-size="14.00" fill="#000000">weapons</text>
<text xml:space="preserve" text-anchor="middle" x="521" y="-415.62" font-family="Times New Roman,serif" font-size="14.00" fill="#000000">(module in instances)</text>
</a>
</g>
</g>
<!-- test&#45;&gt;instances__weapons -->
<g id="edge43" class="edge">
<title>test&#45;&gt;instances__weapons</title>
<path fill="none" stroke="#000000" d="M359.15,-622.99C439.98,-618.99 607.63,-608.41 625,-588.9 651.74,-558.86 644.08,-533.82 625,-498.41 616.17,-482.02 601.51,-468.91 585.94,-458.72"/>
<polygon fill="#000000" stroke="#000000" points="587.82,-455.77 577.47,-453.54 584.17,-461.74 587.82,-455.77"/>
</g>
<!-- engine__action&#45;&gt;engine__base -->
<g id="edge1" class="edge">
<title>engine__action&#45;&gt;engine__base</title>
<path fill="none" stroke="#000000" d="M225,-117.63C225,-110.11 225,-101.85 225,-93.84"/>
<polygon fill="#000000" stroke="#000000" points="228.5,-93.92 225,-83.92 221.5,-93.92 228.5,-93.92"/>
</g>
<!-- engine__encounter_manager&#45;&gt;engine__action -->
<g id="edge2" class="edge">
<title>engine__encounter_manager&#45;&gt;engine__action</title>
<path fill="none" stroke="#000000" d="M209.78,-211.61C211.64,-203.84 213.68,-195.28 215.66,-187.03"/>
<polygon fill="#000000" stroke="#000000" points="219.01,-188.08 217.93,-177.54 212.2,-186.45 219.01,-188.08"/>
</g>
<!-- engine__encounter_manager&#45;&gt;engine__base -->
<g id="edge3" class="edge">
<title>engine__encounter_manager&#45;&gt;engine__base</title>
<path fill="none" stroke="#000000" d="M163.39,-214.93C150.59,-204.58 137.92,-191.37 131,-175.97 120.44,-152.46 118.95,-140.76 131,-117.98 138.65,-103.52 151.2,-91.72 164.67,-82.36"/>
<polygon fill="#000000" stroke="#000000" points="166.32,-85.46 172.83,-77.1 162.53,-79.58 166.32,-85.46"/>
</g>
<!-- engine__entity&#45;&gt;engine__action -->
<g id="edge4" class="edge">
<title>engine__entity&#45;&gt;engine__action</title>
<path fill="none" stroke="#000000" d="M274.59,-307.45C284.3,-296.86 293.91,-283.87 299,-269.95 307.85,-245.74 309.72,-235.4 299,-211.97 293.43,-199.78 284.26,-189.02 274.24,-179.98"/>
<polygon fill="#000000" stroke="#000000" points="276.75,-177.52 266.85,-173.76 272.25,-182.87 276.75,-177.52"/>
</g>
<!-- engine__entity&#45;&gt;engine__base -->
<g id="edge5" class="edge">
<title>engine__entity&#45;&gt;engine__base</title>
<path fill="none" stroke="#000000" d="M278.5,-307.9C289.73,-297.36 301.13,-284.29 308,-269.95 337.27,-208.89 350.66,-177.84 319,-117.98 311.35,-103.52 298.8,-91.72 285.33,-82.36"/>
<polygon fill="#000000" stroke="#000000" points="287.47,-79.58 277.17,-77.1 283.68,-85.46 287.47,-79.58"/>
</g>
<!-- engine__entity&#45;&gt;engine__encounter_manager -->
<g id="edge6" class="edge">
<title>engine__entity&#45;&gt;engine__encounter_manager</title>
<path fill="none" stroke="#000000" d="M232.17,-305.84C228.47,-297.73 224.36,-288.74 220.43,-280.12"/>
<polygon fill="#000000" stroke="#000000" points="223.72,-278.9 216.38,-271.26 217.35,-281.81 223.72,-278.9"/>
</g>
<!-- engine__game_manager&#45;&gt;engine__action -->
<g id="edge7" class="edge">
<title>engine__game_manager&#45;&gt;engine__action</title>
<path fill="none" stroke="#000000" d="M141.73,-400.43C114.2,-357.44 70.73,-272.9 107,-211.97 117.41,-194.48 134.45,-181.47 152.38,-171.93"/>
<polygon fill="#000000" stroke="#000000" points="153.63,-175.22 161.05,-167.65 150.53,-168.94 153.63,-175.22"/>
</g>
<!-- engine__game_manager&#45;&gt;engine__base -->
<g id="edge8" class="edge">
<title>engine__game_manager&#45;&gt;engine__base</title>
<path fill="none" stroke="#000000" d="M124.25,-402.64C112.07,-392.18 99.88,-378.97 93,-363.93 64.89,-302.49 78.6,-278.72 89,-211.97 95.75,-168.64 91.83,-152.4 119,-117.98 130.53,-103.38 146.37,-91.34 162.3,-81.8"/>
<polygon fill="#000000" stroke="#000000" points="163.91,-84.91 170.88,-76.92 160.45,-78.82 163.91,-84.91"/>
</g>
<!-- engine__game_manager&#45;&gt;engine__encounter_manager -->
<g id="edge9" class="edge">
<title>engine__game_manager&#45;&gt;engine__encounter_manager</title>
<path fill="none" stroke="#000000" d="M151.91,-399.74C144.76,-372.68 137.97,-331.13 151,-297.95 153.97,-290.39 158.49,-283.25 163.65,-276.76"/>
<polygon fill="#000000" stroke="#000000" points="166.07,-279.3 170,-269.46 160.79,-274.7 166.07,-279.3"/>
</g>
<!-- engine__game_manager&#45;&gt;engine__entity -->
<g id="edge10" class="edge">
<title>engine__game_manager&#45;&gt;engine__entity</title>
<path fill="none" stroke="#000000" d="M185.75,-400.82C194.21,-391.56 203.8,-381.06 212.76,-371.24"/>
<polygon fill="#000000" stroke="#000000" points="215.25,-373.71 219.41,-363.96 210.08,-368.99 215.25,-373.71"/>
</g>
<!-- instances__effects&#45;&gt;engine__action -->
<g id="edge11" class="edge">
<title>instances__effects&#45;&gt;engine__action</title>
<path fill="none" stroke="#000000" d="M497.79,-306.43C473.69,-279.31 433.74,-238.23 392,-211.97 363.91,-194.29 330.17,-180.22 300.39,-169.83"/>
<polygon fill="#000000" stroke="#000000" points="301.65,-166.56 291.05,-166.65 299.39,-173.18 301.65,-166.56"/>
</g>
<!-- instances__effects&#45;&gt;engine__base -->
<g id="edge12" class="edge">
<title>instances__effects&#45;&gt;engine__base</title>
<path fill="none" stroke="#000000" d="M502.89,-306.22C485.79,-280.77 458.82,-242.49 432,-211.97 391.96,-166.39 381.4,-154.56 333,-117.98 316.5,-105.51 297.38,-93.49 279.86,-83.3"/>
<polygon fill="#000000" stroke="#000000" points="282.05,-80.52 271.64,-78.59 278.57,-86.59 282.05,-80.52"/>
</g>
<!-- instances__effects&#45;&gt;engine__encounter_manager -->
<g id="edge13" class="edge">
<title>instances__effects&#45;&gt;engine__encounter_manager</title>
<path fill="none" stroke="#000000" d="M453.17,-314.32C402,-299.52 331.79,-279.21 278.78,-263.88"/>
<polygon fill="#000000" stroke="#000000" points="279.77,-260.52 269.19,-261.1 277.83,-267.24 279.77,-260.52"/>
</g>
<!-- instances__effects&#45;&gt;engine__entity -->
<g id="edge14" class="edge">
<title>instances__effects&#45;&gt;engine__entity</title>
<path fill="none" stroke="#000000" d="M426.09,-334.94C397.95,-334.94 369.8,-334.94 341.65,-334.94"/>
<polygon fill="#000000" stroke="#000000" points="341.95,-331.44 331.95,-334.94 341.95,-338.44 341.95,-331.44"/>
</g>
<!-- instances__entities&#45;&gt;engine__action -->
<g id="edge15" class="edge">
<title>instances__entities&#45;&gt;engine__action</title>
<path fill="none" stroke="#000000" d="M452.6,-506.93C424.18,-498.78 397.57,-491.02 397,-490.41 389.53,-482.42 358.83,-308.2 355,-297.95 339.76,-257.15 336.29,-245.07 308,-211.97 298.02,-200.28 285.58,-189.34 273.41,-179.93"/>
<polygon fill="#000000" stroke="#000000" points="275.51,-177.13 265.4,-173.94 271.32,-182.73 275.51,-177.13"/>
</g>
<!-- instances__entities&#45;&gt;engine__base -->
<g id="edge16" class="edge">
<title>instances__entities&#45;&gt;engine__base</title>
<path fill="none" stroke="#000000" d="M615.95,-526.43C757.36,-525.48 1009.89,-519.67 1039,-490.41 1087.53,-441.65 1049,-404.74 1049,-335.94 1049,-335.94 1049,-335.94 1049,-239.96 1049,-92.28 539.02,-61.86 321.47,-55.61"/>
<polygon fill="#000000" stroke="#000000" points="321.68,-52.11 311.59,-55.34 321.49,-59.11 321.68,-52.11"/>
</g>
<!-- instances__entities&#45;&gt;engine__encounter_manager -->
<g id="edge17" class="edge">
<title>instances__entities&#45;&gt;engine__encounter_manager</title>
<path fill="none" stroke="#000000" d="M453.82,-506.65C443.21,-503.75 432.33,-500.9 422,-498.41 404.37,-494.17 394.96,-503.09 382,-490.41 319.33,-429.13 395.47,-364.98 339,-297.95 325.2,-281.56 305.83,-269.9 286.03,-261.63"/>
<polygon fill="#000000" stroke="#000000" points="287.34,-258.38 276.75,-258.04 284.81,-264.91 287.34,-258.38"/>
</g>
<!-- instances__entities&#45;&gt;engine__entity -->
<g id="edge18" class="edge">
<title>instances__entities&#45;&gt;engine__entity</title>
<path fill="none" stroke="#000000" d="M454.76,-506.27C443.88,-503.37 432.67,-500.62 422,-498.41 395.66,-492.96 384.28,-505.49 362,-490.41 323.77,-464.54 339.2,-436.48 311,-399.93 303.01,-389.57 293.37,-379.28 283.95,-370.08"/>
<polygon fill="#000000" stroke="#000000" points="286.53,-367.71 276.88,-363.35 281.71,-372.78 286.53,-367.71"/>
</g>
<!-- instances__entities&#45;&gt;instances__effects -->
<g id="edge19" class="edge">
<title>instances__entities&#45;&gt;instances__effects</title>
<path fill="none" stroke="#000000" d="M441.88,-511.19C432.13,-506.11 423.37,-499.36 417,-490.41 393.67,-457.66 397.38,-435.04 417,-399.93 425.36,-384.98 438.8,-373.09 453.28,-363.82"/>
<polygon fill="#000000" stroke="#000000" points="454.8,-366.99 461.61,-358.87 451.22,-360.97 454.8,-366.99"/>
</g>
<!-- instances__entities&#45;&gt;instances__others -->
<g id="edge20" class="edge">
<title>instances__entities&#45;&gt;instances__others</title>
<path fill="none" stroke="#000000" d="M586.14,-506.08C599.2,-501.39 612.68,-496.09 625,-490.41 643.1,-482.07 662.14,-471.46 678.84,-461.46"/>
<polygon fill="#000000" stroke="#000000" points="680.36,-464.64 687.1,-456.46 676.73,-458.65 680.36,-464.64"/>
</g>
<!-- instances__entities&#45;&gt;instances__spells -->
<g id="edge21" class="edge">
<title>instances__entities&#45;&gt;instances__spells</title>
<path fill="none" stroke="#000000" d="M585.48,-505.8C596.88,-502.84 608.71,-500.2 620,-498.41 666.57,-491.06 786.75,-503.64 832,-490.41 852.66,-484.38 873.49,-473.29 890.97,-462.25"/>
<polygon fill="#000000" stroke="#000000" points="892.58,-465.37 899.04,-456.97 888.76,-459.51 892.58,-465.37"/>
</g>
<!-- instances__entities&#45;&gt;instances__weapons -->
<g id="edge22" class="edge">
<title>instances__entities&#45;&gt;instances__weapons</title>
<path fill="none" stroke="#000000" d="M521,-497.98C521,-489.05 521,-479.02 521,-469.46"/>
<polygon fill="#000000" stroke="#000000" points="524.5,-469.66 521,-459.66 517.5,-469.66 524.5,-469.66"/>
</g>
<!-- instances__others&#45;&gt;engine__action -->
<g id="edge23" class="edge">
<title>instances__others&#45;&gt;engine__action</title>
<path fill="none" stroke="#000000" d="M711.45,-400.2C679.35,-347.39 608.42,-235.51 570,-211.97 528.57,-186.58 404.83,-167.99 317.44,-157.58"/>
<polygon fill="#000000" stroke="#000000" points="318.01,-154.12 307.67,-156.43 317.19,-161.07 318.01,-154.12"/>
</g>
<!-- instances__others&#45;&gt;engine__base -->
<g id="edge24" class="edge">
<title>instances__others&#45;&gt;engine__base</title>
<path fill="none" stroke="#000000" d="M718.57,-399.61C708.9,-372.45 692.4,-330.83 672,-297.95 609.82,-197.74 583.06,-169.55 477,-117.98 425.58,-92.98 363.35,-77.06 313.59,-67.34"/>
<polygon fill="#000000" stroke="#000000" points="314.49,-63.95 304.01,-65.53 313.19,-70.83 314.49,-63.95"/>
</g>
<!-- instances__others&#45;&gt;engine__entity -->
<g id="edge25" class="edge">
<title>instances__others&#45;&gt;engine__entity</title>
<path fill="none" stroke="#000000" d="M660.11,-408.33C648.45,-405.3 636.42,-402.36 625,-399.93 523.38,-378.27 496.41,-381.53 394,-363.93 373,-360.32 350.38,-356.2 329.27,-352.24"/>
<polygon fill="#000000" stroke="#000000" points="330.01,-348.82 319.54,-350.41 328.72,-355.7 330.01,-348.82"/>
</g>
<!-- instances__others&#45;&gt;instances__effects -->
<g id="edge26" class="edge">
<title>instances__others&#45;&gt;instances__effects</title>
<path fill="none" stroke="#000000" d="M675.23,-404.47C647.49,-392.15 613.3,-376.95 584.16,-364.01"/>
<polygon fill="#000000" stroke="#000000" points="585.62,-360.82 575.06,-359.96 582.77,-367.22 585.62,-360.82"/>
</g>
<!-- instances__spells&#45;&gt;engine__action -->
<g id="edge27" class="edge">
<title>instances__spells&#45;&gt;engine__action</title>
<path fill="none" stroke="#000000" d="M892.61,-402.62C873.38,-391.01 850.43,-376.96 830,-363.93 727.32,-298.46 715.18,-256.91 602,-211.97 510.41,-175.59 398.27,-159.89 320.21,-153.11"/>
<polygon fill="#000000" stroke="#000000" points="320.71,-149.64 310.46,-152.3 320.13,-156.61 320.71,-149.64"/>
</g>
<!-- instances__spells&#45;&gt;engine__base -->
<g id="edge28" class="edge">
<title>instances__spells&#45;&gt;engine__base</title>
<path fill="none" stroke="#000000" d="M909.61,-400.85C849.97,-339.14 693.61,-188 530,-117.98 461.87,-88.83 379.33,-72.55 317.3,-63.72"/>
<polygon fill="#000000" stroke="#000000" points="317.85,-60.26 307.47,-62.36 316.89,-67.2 317.85,-60.26"/>
</g>
<!-- instances__spells&#45;&gt;instances__effects -->
<g id="edge29" class="edge">
<title>instances__spells&#45;&gt;instances__effects</title>
<path fill="none" stroke="#000000" d="M866.17,-408.58C854.79,-405.56 843.09,-402.58 832,-399.93 758.15,-382.32 673.74,-365.13 611.52,-353.02"/>
<polygon fill="#000000" stroke="#000000" points="612.52,-349.65 602.04,-351.18 611.19,-356.52 612.52,-349.65"/>
</g>
<!-- instances__weapons&#45;&gt;engine__action -->
<g id="edge30" class="edge">
<title>instances__weapons&#45;&gt;engine__action</title>
<path fill="none" stroke="#000000" d="M579.09,-405.76C597.07,-395.83 614.81,-382.16 625,-363.93 639.31,-338.33 640.97,-322.54 625,-297.95 559.44,-196.98 416.2,-163.75 320.15,-152.96"/>
<polygon fill="#000000" stroke="#000000" points="320.79,-149.51 310.47,-151.94 320.05,-156.47 320.79,-149.51"/>
</g>
<!-- instances__weapons&#45;&gt;engine__base -->
<g id="edge31" class="edge">
<title>instances__weapons&#45;&gt;engine__base</title>
<path fill="none" stroke="#000000" d="M584.77,-407.24C604.74,-397.42 624.54,-383.43 636,-363.93 650.86,-338.65 649.73,-323.86 636,-297.95 568.52,-170.55 403.33,-103.71 304.14,-73.91"/>
<polygon fill="#000000" stroke="#000000" points="305.3,-70.6 294.72,-71.14 303.33,-77.32 305.3,-70.6"/>
</g>
<!-- instances__weapons&#45;&gt;engine__entity -->
<g id="edge32" class="edge">
<title>instances__weapons&#45;&gt;engine__entity</title>
<path fill="none" stroke="#000000" d="M458.03,-406.93C415.64,-392.81 359.68,-374.16 315.76,-359.52"/>
<polygon fill="#000000" stroke="#000000" points="316.89,-356.21 306.3,-356.37 314.68,-362.85 316.89,-356.21"/>
</g>
<!-- instances__weapons&#45;&gt;instances__effects -->
<g id="edge33" class="edge">
<title>instances__weapons&#45;&gt;instances__effects</title>
<path fill="none" stroke="#000000" d="M521,-399.57C521,-392.06 521,-383.79 521,-375.79"/>
<polygon fill="#000000" stroke="#000000" points="524.5,-375.87 521,-365.87 517.5,-375.87 524.5,-375.87"/>
</g>
</g>
</svg>
